#!OML:ASF F:\VICON\USERDATA\INSTALL\rory3\rory3.ASF
:FULLY-SPECIFIED
:DEGREES
2787
root 0.356025 16.8781 0.530432 -12.3209 2.27502 -2.22455
lowerback -8.59519 0.731382 -3.27217
upperback 1.27474 1.29231 0.581678
thorax 6.07871 0.511501 2.62729
lowerneck 21.2314 -17.3151 -25.893
upperneck 17.3268 -31.9079 20.5326
head 9.98708 -17.1749 8.51383
rclavicle -1.51076e-014 1.59028e-015
rhumerus 65.005 10.0974 -65.5265
rradius 20.7514
rwrist 47.9611
rhand 5.57022 0.461117
rfingers 7.12502
rthumb 30.9137 -26.9568
lclavicle -1.51076e-014 1.59028e-015
lhumerus 66.2842 31.5111 26.2891
lradius 113.051
lwrist 57.0231
lhand 42.9158 30.4934
lfingers 7.12502
lthumb 64.7637 38.0588
rfemur 15.6921 9.15771 23.678
rtibia 17.6533
rfoot -19.2395 -14.4889
rtoes -24.7921
lfemur 10.1284 -13.5765 -20.9348
ltibia 26.7497
lfoot -22.2677 6.98559
ltoes -22.3573
2788
root 0.355799 16.8745 0.521311 -12.3947 2.29419 -2.21434
lowerback -8.56333 0.760169 -3.27908
upperback 1.31638 1.33307 0.547903
thorax 6.10241 0.530911 2.60108
lowerneck 21.2603 -17.3055 -25.826
upperneck 17.3408 -31.8924 20.5614
head 9.9779 -17.1667 8.52611
rclavicle -3.01159e-014 -4.77083e-015
rhumerus 64.8066 10.0436 -65.7103
rradius 20.6786
rwrist 47.8975
rhand 3.91992 0.00726079
rfingers 7.12502
rthumb 29.3392 -27.6976
lclavicle -3.01159e-014 -4.77083e-015
lhumerus 66.8825 31.1413 27.178
lradius 112.972
lwrist 56.8955
lhand 43.0253 30.4025
lfingers 7.12502
lthumb 64.8506 37.8262
rfemur 15.6975 9.12702 23.6639
rtibia 17.6906
rfoot -19.1268 -14.5546
rtoes -25.2304
lfemur 10.1488 -13.5807 -20.9524
ltibia 26.7979
lfoot -22.3942 6.75047
ltoes -21.1999
2789
root 0.356432 16.8756 0.512886 -12.4494 2.32976 -2.13573
lowerback -8.51789 0.790676 -3.35497
upperback 1.33429 1.38327 0.503355
thorax 6.09156 0.553785 2.60299
lowerneck 21.3297 -17.3252 -25.7495
upperneck 17.3483 -31.9001 20.4953
head 9.94574 -17.1716 8.50288
rclavicle -2.29596e-014 -6.75868e-015
rhumerus 64.6475 9.97931 -65.8887
rradius 20.5258
rwrist 47.8915
rhand 2.53778 -0.416759
rfingers 7.12502
rthumb 28.0188 -28.345
lclavicle -2.29596e-014 -6.75868e-015
lhumerus 67.4635 30.724 28.0634
lradius 112.925
lwrist 56.8038
lhand 43.0888 30.4454
lfingers 7.12502
lthumb 64.9009 37.7864
rfemur 15.7183 9.0158 23.5263
rtibia 17.7627
rfoot -19.2387 -14.4153
rtoes -25.1253
lfemur 10.1698 -13.5963 -21.056
ltibia 26.8122
lfoot -22.4164 6.8056
ltoes -21.2111
2790
root 0.355992 16.878 0.504149 -12.4478 2.35876 -2.08401
lowerback -8.52719 0.783756 -3.45281
upperback 1.33726 1.38554 0.492893
thorax 6.0981 0.551479 2.64771
lowerneck 21.3811 -17.2962 -25.724
upperneck 17.3908 -31.8613 20.4612
head 9.93219 -17.1567 8.50497
rclavicle -1.45113e-014 6.75868e-015
rhumerus 64.4702 9.93607 -66.2529
rradius 20.4036
rwrist 48.1699
rhand 1.43729 -0.480401
rfingers 7.12502
rthumb 26.9663 -28.576
lclavicle -1.45113e-014 6.75868e-015
lhumerus 67.8861 30.3257 28.8616
lradius 112.932
lwrist 56.7276
lhand 43.1224 30.5031
lfingers 7.12502
lthumb 64.9275 37.8002
rfemur 15.6462 8.93657 23.4324
rtibia 17.8705
rfoot -19.3842 -14.3148
rtoes -25.181
lfemur 10.1387 -13.5943 -21.1009
ltibia 26.7893
lfoot -22.4035 6.69094
ltoes -20.5347
2791
root 0.355029 16.8787 0.494613 -12.4935 2.37598 -2.08906
lowerback -8.5083 0.780546 -3.48147
upperback 1.38066 1.38557 0.474087
thorax 6.13311 0.549504 2.64435
lowerneck 21.3708 -17.2881 -25.6596
upperneck 17.4714 -31.8453 20.449
head 9.94589 -17.1456 8.4984
rclavicle 4.08502e-014 2.06736e-014
rhumerus 64.3177 9.88362 -66.6036
rradius 20.3162
rwrist 48.3704
rhand 0.132634 -0.65876
rfingers 7.12502
rthumb 25.7174 -28.9412
lclavicle 4.08502e-014 2.06736e-014
lhumerus 68.3268 29.9896 29.6347
lradius 112.972
lwrist 56.7522
lhand 43.2004 30.8397
lfingers 7.12502
lthumb 64.9891 38.0346
rfemur 15.5748 8.86927 23.4236
rtibia 17.9979
rfoot -19.5066 -14.3068
rtoes -25.4672
lfemur 10.1582 -13.5718 -21.0854
ltibia 26.7693
lfoot -22.3556 6.5577
ltoes -20.1577
2792
root 0.354173 16.8821 0.485892 -12.55 2.41672 -2.08447
lowerback -8.47886 0.758733 -3.50794
upperback 1.44825 1.36071 0.454268
thorax 6.18954 0.534582 2.63548
lowerneck 21.2381 -17.2461 -25.6626
upperneck 17.5927 -31.7885 20.4737
head 10.0011 -17.1097 8.50566
rclavicle -4.96962e-016 4.37326e-015
rhumerus 64.2419 9.91812 -66.8053
rradius 20.2047
rwrist 48.4889
rhand -1.32848 -1.06223
rfingers 7.12502
rthumb 24.3173 -29.5397
lclavicle -4.96962e-016 4.37326e-015
lhumerus 68.7573 29.6949 30.4392
lradius 112.971
lwrist 56.866
lhand 43.489 31.1817
lfingers 7.12502
lthumb 65.2166 37.9938
rfemur 15.4566 8.72455 23.3812
rtibia 18.15
rfoot -19.6228 -14.3102
rtoes -25.0933
lfemur 10.1922 -13.5551 -21.0822
ltibia 26.7492
lfoot -22.1302 6.92941
ltoes -22.294
2793
root 0.352321 16.883 0.473884 -12.6037 2.41301 -2.11145
lowerback -8.45474 0.767721 -3.50244
upperback 1.50272 1.37238 0.452087
thorax 6.23277 0.538908 2.6319
lowerneck 21.2384 -17.2028 -25.6761
upperneck 17.6375 -31.7521 20.5412
head 10.0243 -17.094 8.54046
rclavicle 3.97569e-016 5.96354e-015
rhumerus 64.1486 9.84208 -67.2153
rradius 20.0102
rwrist 48.839
rhand -2.62888 -1.25707
rfingers 7.12502
rthumb 23.0701 -29.8961
lclavicle 3.97569e-016 5.96354e-015
lhumerus 69.186 29.2855 31.2868
lradius 112.973
lwrist 56.8613
lhand 43.8839 31.4165
lfingers 7.12502
lthumb 65.5258 37.693
rfemur 15.3564 8.65975 23.3844
rtibia 18.2915
rfoot -19.5925 -14.2719
rtoes -24.7953
lfemur 10.1855 -13.5445 -21.0344
ltibia 26.7637
lfoot -21.8586 7.35294
ltoes -25.1216
2794
root 0.34967 16.8811 0.462134 -12.6298 2.43845 -1.99079
lowerback -8.45525 0.812037 -3.61527
upperback 1.49423 1.44992 0.346044
thorax 6.2189 0.575377 2.59437
lowerneck 21.3913 -17.1463 -25.6197
upperneck 17.7465 -31.7239 20.5929
head 10.0365 -17.0923 8.58149
rclavicle -1.86858e-014 2.14687e-014
rhumerus 63.8414 9.58552 -67.915
rradius 19.803
rwrist 49.4807
rhand -4.20101 -1.25478
rfingers 7.12502
rthumb 21.5609 -30.0746
lclavicle -1.86858e-014 2.14687e-014
lhumerus 69.7145 28.6703 32.1547
lradius 112.962
lwrist 56.9649
lhand 44.3824 32.0743
lfingers 7.12502
lthumb 65.9128 37.6543
rfemur 15.3607 8.60338 23.2165
rtibia 18.3988
rfoot -19.6017 -14.111
rtoes -24.8126
lfemur 10.1378 -13.5436 -21.1545
ltibia 26.812
lfoot -21.7807 7.48304
ltoes -26.2031
2795
root 0.348718 16.8783 0.45201 -12.6991 2.47378 -2.00348
lowerback -8.43409 0.872725 -3.55081
upperback 1.5261 1.52947 0.253532
thorax 6.23886 0.617751 2.47157
lowerneck 21.4255 -17.1574 -25.5048
upperneck 17.9053 -31.7454 20.5608
head 10.0711 -17.1005 8.56042
rclavicle 1.68967e-015 6.36111e-015
rhumerus 63.465 9.3 -68.4671
rradius 19.7501
rwrist 50.0597
rhand -5.78337 -1.27073
rfingers 7.12502
rthumb 20.0406 -30.2572
lclavicle 1.68967e-015 6.36111e-015
lhumerus 70.2987 28.091 33.093
lradius 112.958
lwrist 57.1534
lhand 44.9628 33.0299
lfingers 7.12502
lthumb 66.3585 37.7694
rfemur 15.4285 8.5313 23.207
rtibia 18.4819
rfoot -19.6919 -13.9511
rtoes -24.4263
lfemur 10.1207 -13.5545 -21.1506
ltibia 26.9024
lfoot -21.7951 7.67203
ltoes -27.22
2796
root 0.347913 16.8741 0.440393 -12.7953 2.48111 -2.10867
lowerback -8.3171 0.941328 -3.37507
upperback 1.53967 1.60167 0.193517
thorax 6.18743 0.661796 2.31653
lowerneck 21.4388 -17.1967 -25.4105
upperneck 18.0932 -31.8006 20.4678
head 10.1206 -17.1238 8.50842
rclavicle -7.95139e-016 3.97569e-015
rhumerus 63.0912 8.96891 -69.1656
rradius 19.667
rwrist 50.6778
rhand -7.09869 -1.22091
rfingers 7.12502
rthumb 18.7759 -30.3347
lclavicle -7.95139e-016 3.97569e-015
lhumerus 70.8175 27.4894 33.967
lradius 112.957
lwrist 57.1549
lhand 45.4145 33.4855
lfingers 7.12502
lthumb 66.7014 37.548
rfemur 15.4301 8.48237 23.3183
rtibia 18.5519
rfoot -19.6627 -13.9543
rtoes -24.7145
lfemur 10.1142 -13.5356 -21.0266
ltibia 27.0069
lfoot -21.877 7.31693
ltoes -25.6431
